<?xml version="1.0" encoding="UTF-8" standalone="no"?>
<!-- Created with Inkscape (http://www.inkscape.org/) -->

<svg
   width="80"
   height="62.301762"
   viewBox="0 0 21.166667 16.484007"
   version="1.1"
   id="svg1"
   sodipodi:docname="uge44_logo_blue.svg"
   inkscape:version="1.4 (86a8ad7, 2024-10-11)"
   xmlns:inkscape="http://www.inkscape.org/namespaces/inkscape"
   xmlns:sodipodi="http://sodipodi.sourceforge.net/DTD/sodipodi-0.dtd"
   xmlns="http://www.w3.org/2000/svg"
   xmlns:svg="http://www.w3.org/2000/svg">
  <sodipodi:namedview
     id="namedview1"
     pagecolor="#ffffff"
     bordercolor="#999999"
     borderopacity="1"
     inkscape:showpageshadow="2"
     inkscape:pageopacity="0"
     inkscape:pagecheckerboard="0"
     inkscape:deskcolor="#d1d1d1"
     inkscape:zoom="4.8674386"
     inkscape:cx="0.92451089"
     inkscape:cy="75.296276"
     inkscape:window-width="2560"
     inkscape:window-height="1494"
     inkscape:window-x="-11"
     inkscape:window-y="-11"
     inkscape:window-maximized="1"
     inkscape:current-layer="layer1" />
  <defs
     id="defs1" />
  <g
     id="layer1"
     transform="translate(-45.52553,-24.603129)">
    <g
       id="g28"
       transform="matrix(0.68896354,0,0,0.68896354,28.73514,-4.9734971)"
       style="fill:#001680;fill-opacity:1;stroke-width:1.45146">
      <path
         style="fill:#001680;fill-opacity:1;stroke-width:7.37339;stroke-miterlimit:4.5;paint-order:stroke fill markers"
         id="path27"
         d="M 55.092979,55.936272 C 55.086571,61.77007 48.163417,66.122876 39.39666,66.130506 33.303645,65.579577 24.388969,62.270024 24.370506,56.397545 24.903079,50.200586 30.98116,45.664142 40.108025,46.32294 c 6.108468,0.762997 14.991363,3.779533 14.984954,9.613332 z" />
      <path
         style="fill:#001680;fill-opacity:1;stroke-width:7.37339;stroke-miterlimit:4.5;paint-order:stroke fill markers"
         d="m 24.818481,66.854965 c 0,0 4.334722,-3.182009 5.700357,-7.629709 l 5.904986,2.923259 c 1.085327,3.97077 -11.605343,4.70645 -11.605343,4.70645 z"
         id="path28" />
    </g>
    <g
       id="text29">
      <path
         style="line-height:95%;font-family:Chango;-inkscape-font-specification:Chango;fill:#fff2e5;stroke:none"
         d="m 49.068103,25.335821 -0.01396,0.635 v 1.346758 q 0,0.293077 0.181428,0.453571 0.181429,0.160495 0.42566,0.160495 0.24423,0 0.418681,-0.160495 0.181428,-0.160494 0.181428,-0.453571 v -2.07945 q 0,-0.327967 0.08374,-0.481483 0.09071,-0.153517 0.383791,-0.153517 h 0.641978 q 0.223296,0 0.307032,0.132583 0.160495,0.237252 0.160495,1.835219 0,0.523351 -0.01396,0.802472 -0.02093,0.56522 -0.265165,1.011813 -0.237253,0.439615 -0.614066,0.70478 -0.760604,0.537308 -1.723571,0.537308 -1.269999,0 -2.100384,-0.593132 -0.418681,-0.300055 -0.662912,-0.795494 -0.237252,-0.502418 -0.24423,-1.16533 -0.007,-0.327967 -0.007,-0.962966 0,-0.641978 0.01396,-0.921099 0.02093,-0.286099 0.111648,-0.432637 0.09769,-0.153517 0.383791,-0.153517 h 1.863131 q 0.279121,0 0.369836,0.146539 0.118626,0.188406 0.118626,0.586153 z m 5.407968,1.667747 q -0.411703,0 -0.411703,0.607088 0,0.60011 0.397747,0.60011 0.174451,0 0.300055,-0.09071 0.132583,-0.09769 0.132583,-0.272142 v -0.481484 q 0,-0.167472 -0.132583,-0.265165 -0.125604,-0.09769 -0.286099,-0.09769 z m 2.623736,-0.732692 0.01396,2.142252 q 0,0.697802 -0.007,1.060659 -0.007,0.362857 -0.209341,0.655934 -0.202362,0.293077 -0.551263,0.46055 -0.683846,0.31401 -1.821264,0.31401 -1.137417,0 -1.863131,-0.307032 -0.17445,-0.07676 -0.258187,-0.167473 -0.07676,-0.08374 -0.07676,-0.307033 0,-0.216318 0.08374,-0.320989 0.09071,-0.10467 0.209341,-0.10467 0.118626,0 0.293077,0.08374 0.537307,0.265165 1.074615,0.265165 0.244231,0 0.439615,-0.05582 0.195385,-0.04885 0.341923,-0.209341 0.153517,-0.160494 0.153517,-0.411703 l -0.007,-0.369835 q 0,-0.06978 -0.04187,-0.06978 -0.02093,0 -0.04187,0.02093 -0.558241,0.537307 -1.228131,0.537307 -0.66989,0 -1.123461,-0.425659 -0.446594,-0.425659 -0.446594,-1.346758 0,-0.921098 0.53033,-1.388626 0.530329,-0.474505 1.297912,-0.474505 0.767582,0 1.137417,0.481483 0.007,-0.181428 0.132582,-0.279121 0.125605,-0.09769 0.279121,-0.111648 0.153517,-0.01396 0.558242,-0.01396 l 0.73967,0.01396 q 0.132582,0 0.258187,0.09769 0.132582,0.09072 0.132582,0.230275 z m 1.465387,-0.118626 q 0.320989,-0.160495 0.655934,-0.230275 0.341923,-0.06978 0.837362,-0.06978 0.502418,0 0.955989,0.125604 0.453571,0.118627 0.676868,0.327967 0.390769,0.383791 0.390769,0.900165 0,0.80945 -1.367692,0.80945 -0.481483,0 -0.997857,-0.09071 0.02093,0.460549 0.167473,0.648956 0.153516,0.188406 0.537307,0.188406 0.383792,0 0.635,-0.08374 0.251209,-0.08374 0.404725,-0.167472 0.153517,-0.09071 0.258187,-0.09071 0.111649,0 0.188407,0.09769 0.118626,0.125604 0.118626,0.348901 0,0.216318 -0.09071,0.300054 -0.08374,0.07676 -0.272143,0.153517 -0.662912,0.279121 -1.884065,0.279121 -1.011813,0 -1.667747,-0.481484 -0.648956,-0.488461 -0.648956,-1.311867 0,-0.397748 0.146538,-0.725715 0.146539,-0.334945 0.390769,-0.551263 0.244231,-0.223297 0.56522,-0.376813 z m 1.618901,0.495439 q -0.425659,0 -0.46055,0.690824 0.334945,0.02791 0.348901,0.02791 0.46055,0 0.46055,-0.307033 0,-0.411703 -0.348901,-0.411703 z"
         id="path1" />
      <path
         style="line-height:95%;font-family:Chango;-inkscape-font-specification:Chango;fill:#e5a089;stroke:none"
         d="m 55.048286,35.37552 -0.160495,0.007 q -0.007,0.237253 -0.03489,0.572198 -0.02093,0.160494 -0.146538,0.286098 -0.118626,0.125605 -0.320989,0.139561 -0.397747,0.02791 -0.921099,0.02791 -0.523351,0 -0.990879,-0.02791 -0.202362,-0.01396 -0.327966,-0.139561 -0.118627,-0.125604 -0.146539,-0.334944 -0.02093,-0.209341 -0.03489,-0.523352 h -1.528186 q -0.355879,-0.01396 -0.523352,-0.09071 -0.160494,-0.08374 -0.160494,-0.314011 l -0.007,-0.327967 q 0,-0.279121 0.13956,-0.460549 0.851318,-1.137418 2.274835,-2.595824 0.118626,-0.09071 0.334945,-0.09071 h 1.870109 q 0.293077,0 0.383791,0.146538 0.09769,0.146539 0.125604,0.558242 0.02791,0.404725 0.02791,1.786373 v 0.279121 h 0.146539 q 0.146538,0 0.223297,0.10467 0.08374,0.09769 0.08374,0.216319 v 0.404725 q 0,0.362857 -0.307033,0.376813 z m -3.928625,-1.228132 q 0,0.125605 0.132582,0.125605 h 0.697802 v -1.172308 q -0.13956,0.153517 -0.279121,0.314011 -0.132582,0.160495 -0.279121,0.327967 -0.13956,0.167473 -0.20934,0.251209 -0.0628,0.08374 -0.0628,0.153516 z m 9.887851,1.228132 -0.160495,0.007 q -0.007,0.237253 -0.03489,0.572198 -0.02093,0.160494 -0.146538,0.286098 -0.118627,0.125605 -0.320989,0.139561 -0.397748,0.02791 -0.921099,0.02791 -0.523352,0 -0.990879,-0.02791 -0.202362,-0.01396 -0.327967,-0.139561 -0.118626,-0.125604 -0.146538,-0.334944 -0.02093,-0.209341 -0.03489,-0.523352 H 56.39504 q -0.355879,-0.01396 -0.523351,-0.09071 -0.160495,-0.08374 -0.160495,-0.314011 l -0.007,-0.327967 q 0,-0.279121 0.139561,-0.460549 0.851318,-1.137418 2.274834,-2.595824 0.118627,-0.09071 0.334945,-0.09071 h 1.87011 q 0.293076,0 0.383791,0.146538 0.09769,0.146539 0.125604,0.558242 0.02791,0.404725 0.02791,1.786373 v 0.279121 h 0.146539 q 0.146538,0 0.223296,0.10467 0.08374,0.09769 0.08374,0.216319 v 0.404725 q 0,0.362857 -0.307032,0.376813 z m -3.928626,-1.228132 q 0,0.125605 0.132583,0.125605 h 0.697802 v -1.172308 q -0.139561,0.153517 -0.279121,0.314011 -0.132583,0.160495 -0.279121,0.327967 -0.13956,0.167473 -0.209341,0.251209 -0.0628,0.08374 -0.0628,0.153516 z"
         id="path2" />
    </g>
  </g>
</svg>
